<svg width="318" height="51" viewBox="0 0 318 51" fill="none" xmlns="http://www.w3.org/2000/svg">
<g clip-path="url(#clip0_1478_198)">
<g clip-path="url(#clip1_1478_198)">
<path d="M144.509 38.1765C145.229 37.0838 146.604 36.4751 147.717 36.9C148.83 37.3249 150.075 36.6946 150.497 35.4894C150.921 34.2842 150.359 32.9665 149.246 32.5426C148.133 32.1168 147.531 30.8253 147.712 29.6192C147.893 28.414 148.963 27.4096 150.202 27.3899C151.44 27.3683 152.427 26.3094 152.406 25.0236C152.384 23.7405 151.363 22.7145 150.124 22.7351C148.886 22.7558 147.751 21.7588 147.503 20.5208C147.43 20.155 147.442 19.7714 147.509 19.3972C147.67 18.5465 148.179 17.7812 148.917 17.4595C149.97 16.9981 150.414 15.626 149.907 14.3927C149.4 13.1612 148.099 12.5356 147 12.9971C146.419 13.24 145.769 13.2381 145.188 13.0496C144.702 12.8245 144.254 12.4737 143.924 12.0189C143.411 11.3145 143.212 10.431 143.388 9.64978H132.753C137.697 12.3012 142.4 17.649 142.518 24.7263C142.646 32.4413 138.585 38.6201 132.611 41.5744H144.642C143.776 40.6984 143.797 39.2541 144.508 38.1783L144.509 38.1765Z" fill="#CDD1D4"/>
<path d="M174.586 25.4765C175.445 26.0859 175.618 27.31 175.159 28.3093C174.699 29.3093 173.635 29.992 172.655 29.7828C171.675 29.5721 170.721 30.2564 170.522 31.3133C170.323 32.3693 170.959 33.3938 171.939 33.6045C172.92 33.8145 173.586 34.8129 173.589 35.8382C173.593 36.8635 172.832 37.8374 171.803 38.0127C170.776 38.1895 170.09 39.1974 170.273 40.2629C170.455 41.3292 171.435 42.0506 172.464 41.873C173.491 41.6962 174.563 42.3805 174.927 43.3774C175.034 43.6734 175.075 43.9946 175.067 44.3127C175.042 45.0428 174.716 45.7437 174.146 46.1067C173.329 46.6269 173.133 47.825 173.713 48.7863C173.958 49.1904 174.344 49.5283 174.77 49.7556H186.753C182.94 47.8629 179.402 44.304 178.537 39.2408C177.309 32.0647 180.702 25.8104 186.368 22.8893H174.15C173.605 23.7796 173.775 24.9027 174.584 25.4765H174.586Z" fill="#CDD1D4"/>
<path d="M152.249 41.5809H134.47C133.439 41.5809 132.603 40.7449 132.603 39.7137V4.07995C132.603 3.0487 133.439 2.21271 134.47 2.21271H164.249C165.28 2.21271 166.116 3.0487 166.116 4.07995V13.7916" stroke="#1D2E3B" stroke-width="2.31251"/>
<path d="M137.96 6.7507C138.539 6.7507 139.008 6.28145 139.008 5.70259C139.008 5.12374 138.539 4.65448 137.96 4.65448C137.381 4.65448 136.912 5.12374 136.912 5.70259C136.912 6.28145 137.381 6.7507 137.96 6.7507Z" fill="#1D2E3B"/>
<path d="M140.718 6.7507C141.297 6.7507 141.766 6.28145 141.766 5.70259C141.766 5.12374 141.297 4.65448 140.718 4.65448C140.139 4.65448 139.67 5.12374 139.67 5.70259C139.67 6.28145 140.139 6.7507 140.718 6.7507Z" fill="#1D2E3B"/>
<path d="M143.476 6.7507C144.055 6.7507 144.524 6.28145 144.524 5.70259C144.524 5.12374 144.055 4.65448 143.476 4.65448C142.897 4.65448 142.428 5.12374 142.428 5.70259C142.428 6.28145 142.897 6.7507 143.476 6.7507Z" fill="#1D2E3B"/>
<path d="M132.603 9.16003H166.116" stroke="#1D2E3B" stroke-width="2.31251"/>
<path d="M154.56 28.8441V17.9746C154.56 16.9434 155.396 16.1074 156.427 16.1074H183.895C184.926 16.1074 185.762 16.9434 185.762 17.9746V47.8189C185.762 48.8501 184.926 49.6861 183.895 49.6861H156.427C155.396 49.6861 154.56 48.8501 154.56 47.8189V35.7915" stroke="#1D2E3B" stroke-width="2.31251"/>
<path d="M159.361 20.6832C159.94 20.6832 160.409 20.2139 160.409 19.6351C160.409 19.0562 159.94 18.587 159.361 18.587C158.782 18.587 158.313 19.0562 158.313 19.6351C158.313 20.2139 158.782 20.6832 159.361 20.6832Z" fill="#1D2E3B"/>
<path d="M162.12 20.6832C162.699 20.6832 163.168 20.2139 163.168 19.6351C163.168 19.0562 162.699 18.587 162.12 18.587C161.541 18.587 161.072 19.0562 161.072 19.6351C161.072 20.2139 161.541 20.6832 162.12 20.6832Z" fill="#1D2E3B"/>
<path d="M164.878 20.6832C165.457 20.6832 165.926 20.2139 165.926 19.6351C165.926 19.0562 165.457 18.587 164.878 18.587C164.299 18.587 163.83 19.0562 163.83 19.6351C163.83 20.2139 164.299 20.6832 164.878 20.6832Z" fill="#1D2E3B"/>
<path d="M154.56 23.0547H185.762" stroke="#1D2E3B" stroke-width="2.31251"/>
<path d="M146.47 27.6863L141.848 32.3178L146.47 36.9494" stroke="#1D2E3B" stroke-width="2.31251"/>
<path d="M164.961 27.6863L169.583 32.3178L164.961 36.9494" stroke="#1D2E3B" stroke-width="2.31251"/>
<path d="M141.848 32.3178H169.583" stroke="#1D2E3B" stroke-width="2.31251"/>
</g>
</g>
<defs>
<clipPath id="clip0_1478_198">
<rect width="55.73" height="49.9846" fill="white" transform="translate(131.31 0.919983)"/>
</clipPath>
<clipPath id="clip1_1478_198">
<rect width="55.73" height="49.9846" fill="white" transform="translate(131.31 0.919983)"/>
</clipPath>
</defs>
</svg>
