<svg width="318" height="51" viewBox="0 0 318 51" fill="none" xmlns="http://www.w3.org/2000/svg">
<g clip-path="url(#clip0_1478_159)">
<g clip-path="url(#clip1_1478_159)">
<path d="M181.583 2.18402H136.077C135.534 2.18402 135.094 2.62419 135.094 3.16717V48.6728C135.094 49.2158 135.534 49.6559 136.077 49.6559H181.583C182.126 49.6559 182.566 49.2158 182.566 48.6728V3.16717C182.566 2.62419 182.126 2.18402 181.583 2.18402Z" stroke="#1D2E3B" stroke-width="2.26124"/>
<path d="M135.094 8.9657H182.566" stroke="#1D2E3B" stroke-width="2.26124"/>
<path d="M140.613 6.50946C141.179 6.50946 141.638 6.05061 141.638 5.48459C141.638 4.91857 141.179 4.45972 140.613 4.45972C140.047 4.45972 139.588 4.91857 139.588 5.48459C139.588 6.05061 140.047 6.50946 140.613 6.50946Z" fill="#1D2E3B"/>
<path d="M143.31 6.50946C143.876 6.50946 144.335 6.05061 144.335 5.48459C144.335 4.91857 143.876 4.45972 143.31 4.45972C142.744 4.45972 142.285 4.91857 142.285 5.48459C142.285 6.05061 142.744 6.50946 143.31 6.50946Z" fill="#1D2E3B"/>
<path d="M146.007 6.50946C146.573 6.50946 147.032 6.05061 147.032 5.48459C147.032 4.91857 146.573 4.45972 146.007 4.45972C145.441 4.45972 144.982 4.91857 144.982 5.48459C144.982 6.05061 145.441 6.50946 146.007 6.50946Z" fill="#1D2E3B"/>
<path d="M150.288 29.1486C150.631 28.6292 151.286 28.3398 151.816 28.5418C152.347 28.7437 152.94 28.4441 153.141 27.8711C153.343 27.2982 153.075 26.6717 152.545 26.4702C152.015 26.2677 151.728 25.6537 151.814 25.0803C151.9 24.5073 152.41 24.0298 153 24.0204C153.59 24.0102 154.06 23.5068 154.05 22.8955C154.04 22.2855 153.553 21.7977 152.963 21.8075C152.373 21.8173 151.833 21.3433 151.715 20.7547C151.68 20.5808 151.685 20.3985 151.718 20.2206C151.794 19.8161 152.037 19.4523 152.388 19.2994C152.89 19.08 153.101 18.4276 152.86 17.8413C152.618 17.2558 151.998 16.9584 151.475 17.1778C151.198 17.2933 150.889 17.2924 150.612 17.2028C150.38 17.0958 150.167 16.929 150.01 16.7127C149.765 16.3779 149.671 15.9579 149.755 15.5864H144.689C147.044 16.847 149.284 19.3894 149.34 22.7541C149.401 26.422 147.466 29.3595 144.621 30.7641H150.352C149.939 30.3476 149.95 29.6609 150.288 29.1495L150.288 29.1486Z" fill="#CDD1D4"/>
<path d="M166.177 17.0476C166.664 17.3918 166.761 18.0834 166.501 18.6479C166.241 19.2128 165.639 19.5985 165.084 19.4803C164.529 19.3613 163.989 19.7479 163.877 20.3449C163.764 20.9415 164.124 21.5203 164.679 21.6393C165.234 21.7579 165.611 22.322 165.613 22.9012C165.615 23.4804 165.184 24.0306 164.602 24.1296C164.021 24.2295 163.632 24.7989 163.736 25.4009C163.839 26.0033 164.394 26.4108 164.976 26.3105C165.557 26.2106 166.164 26.5972 166.37 27.1603C166.431 27.3276 166.454 27.509 166.45 27.6887C166.435 28.1012 166.251 28.4971 165.928 28.7022C165.466 28.9961 165.355 29.6729 165.683 30.216C165.822 30.4443 166.04 30.6352 166.282 30.7636H173.064C170.906 29.6943 168.903 27.6838 168.413 24.8234C167.718 20.7694 169.639 17.2362 172.846 15.5859H165.931C165.622 16.0889 165.718 16.7234 166.176 17.0476H166.177Z" fill="#CDD1D4"/>
<path d="M176.914 14.6171H140.745V31.5714H176.914V14.6171Z" stroke="#1D2E3B" stroke-width="2.26124"/>
<path d="M140.745 47.3954V37.2228H156.569V47.3954" stroke="#1D2E3B" stroke-width="2.26124"/>
<path d="M161.091 47.3954V37.2228H176.915V47.3954" stroke="#1D2E3B" stroke-width="2.26124"/>
</g>
</g>
<defs>
<clipPath id="clip0_1478_159">
<rect width="50" height="50" fill="white" transform="translate(133.83 0.919983)"/>
</clipPath>
<clipPath id="clip1_1478_159">
<rect width="50" height="50" fill="white" transform="translate(133.83 0.919983)"/>
</clipPath>
</defs>
</svg>
