<svg width="317" height="51" viewBox="0 0 317 51" fill="none" xmlns="http://www.w3.org/2000/svg">
<g clip-path="url(#clip0_1478_179)">
<g clip-path="url(#clip1_1478_179)">
<path d="M167.27 29.4129C167.882 29.8461 168.005 30.7164 167.678 31.4267C167.351 32.1377 166.592 32.623 165.894 32.4743C165.195 32.3245 164.516 32.811 164.374 33.5623C164.232 34.3131 164.686 35.0414 165.384 35.1913C166.083 35.3405 166.557 36.0503 166.559 36.7792C166.563 37.5081 166.02 38.2005 165.287 38.3251C164.556 38.4508 164.067 39.1673 164.197 39.9248C164.327 40.6829 165.025 41.1957 165.758 41.0695C166.49 40.9438 167.254 41.4303 167.513 42.139C167.589 42.3494 167.618 42.5778 167.613 42.8039C167.595 43.3229 167.362 43.8212 166.956 44.0793C166.374 44.4491 166.235 45.3009 166.648 45.9843C166.822 46.2716 167.097 46.5118 167.401 46.6734H175.938C173.222 45.3278 170.701 42.7977 170.084 39.1982C169.209 34.0965 171.627 29.6502 175.664 27.5735H166.959C166.57 28.2065 166.692 29.005 167.269 29.4129H167.27Z" fill="#CDD1D4"/>
<path d="M143.975 21.8066C144.297 21.3189 144.912 21.0472 145.41 21.2369C145.908 21.4265 146.465 21.1452 146.654 20.6073C146.844 20.0694 146.592 19.4812 146.094 19.292C145.597 19.102 145.327 18.5255 145.408 17.9872C145.489 17.4493 145.968 17.001 146.522 16.9922C147.076 16.9825 147.517 16.5099 147.508 15.936C147.498 15.3634 147.041 14.9054 146.487 14.9146C145.933 14.9238 145.426 14.4788 145.315 13.9263C145.282 13.763 145.287 13.5918 145.317 13.4248C145.389 13.0451 145.617 12.7035 145.947 12.5599C146.418 12.354 146.617 11.7415 146.39 11.1911C146.163 10.6414 145.581 10.3622 145.09 10.5682C144.83 10.6766 144.539 10.6758 144.279 10.5916C144.062 10.4912 143.862 10.3346 143.714 10.1316C143.484 9.81719 143.396 9.42286 143.474 9.07416H138.717C140.929 10.2576 143.032 12.6445 143.085 15.8033C143.142 19.2468 141.325 22.0046 138.653 23.3232H144.035C143.648 22.9322 143.657 22.2876 143.975 21.8074L143.975 21.8066Z" fill="#CDD1D4"/>
<path d="M173.848 23.3291H178.093V4.3495C178.093 3.11106 177.089 2.10712 175.85 2.10712H141.066C139.828 2.10712 138.824 3.11106 138.824 4.3495V23.3291H147.314C148.768 23.3291 148.79 22.9577 148.79 22.1619C148.79 21.2918 147.41 20.1777 148.259 18.6178C148.726 17.7583 150.031 17.2702 151.358 17.3021C152.685 17.2809 153.99 17.7796 154.457 18.6285C155.317 20.1883 153.937 21.3024 153.937 22.1725C153.937 22.9684 154.362 23.3291 155.816 23.3291H161.122" stroke="#1D2E3B" stroke-width="2.12367"/>
<path d="M143.177 6.27453C143.709 6.27453 144.14 5.8436 144.14 5.31201C144.14 4.78042 143.709 4.34949 143.177 4.34949C142.646 4.34949 142.215 4.78042 142.215 5.31201C142.215 5.8436 142.646 6.27453 143.177 6.27453Z" fill="#1D2E3B"/>
<path d="M145.71 6.27453C146.242 6.27453 146.673 5.8436 146.673 5.31201C146.673 4.78042 146.242 4.34949 145.71 4.34949C145.179 4.34949 144.748 4.78042 144.748 5.31201C144.748 5.8436 145.179 6.27453 145.71 6.27453Z" fill="#1D2E3B"/>
<path d="M148.243 6.27453C148.775 6.27453 149.206 5.8436 149.206 5.31201C149.206 4.78042 148.775 4.34949 148.243 4.34949C147.712 4.34949 147.281 4.78042 147.281 5.31201C147.281 5.8436 147.712 6.27453 148.243 6.27453Z" fill="#1D2E3B"/>
<path d="M160.05 46.6734H178.093V41.3679C178.093 40.0203 177.424 39.3305 176.681 39.3199C175.874 39.3199 174.845 40.6039 173.391 39.808C172.595 39.373 172.139 38.1633 172.16 36.9325C172.139 35.7016 172.595 34.4919 173.391 34.0569C174.834 33.2717 175.874 34.5556 176.681 34.5556C177.413 34.5556 178.103 34.2373 178.093 32.8791V27.5736H171.725C170.377 27.5736 170.164 27.2446 170.164 26.5125C170.164 25.706 171.449 24.9526 170.653 23.5095C170.218 22.7137 168.997 22.2574 167.766 22.2787C166.535 22.2574 165.325 22.7137 164.89 23.4989C164.104 24.942 165.389 25.706 165.389 26.5125C165.389 27.2446 164.582 27.5842 163.234 27.5842H160.05" stroke="#1D2E3B" stroke-width="2.12367"/>
<path fill-rule="evenodd" clip-rule="evenodd" d="M138.824 49.8567V27.5735H143.069C144.523 27.5735 144.597 27.9661 144.597 28.7514C144.597 29.6215 143.218 30.7356 144.067 32.2954C144.534 33.1549 145.839 33.643 147.166 33.6112C148.492 33.6324 149.798 33.1337 150.265 32.2848C151.125 30.725 149.745 29.6109 149.745 28.7407C149.745 27.9449 149.883 27.6054 151.337 27.6054L156.877 27.5629V32.8684C156.877 34.3221 157.291 34.5768 158.076 34.5768C158.946 34.5768 160.061 33.1974 161.621 34.0463C162.47 34.5131 162.969 35.8183 162.937 37.1447C162.958 38.471 162.459 39.7762 161.61 40.2431C160.05 41.1026 158.936 39.7231 158.076 39.7231C157.28 39.7231 156.888 39.9035 156.888 41.3572V49.846H138.824V49.8567Z" stroke="#1D2E3B" stroke-width="2.12367"/>
<path d="M138.824 8.47369H178.093" stroke="#1D2E3B" stroke-width="2.12367"/>
</g>
</g>
<defs>
<clipPath id="clip0_1478_179">
<rect width="41.55" height="49.9919" fill="white" transform="translate(137.73 0.919983)"/>
</clipPath>
<clipPath id="clip1_1478_179">
<rect width="41.55" height="49.9919" fill="white" transform="translate(137.73 0.919983)"/>
</clipPath>
</defs>
</svg>
