<svg width="181" height="47" viewBox="0 0 181 47" fill="none" xmlns="http://www.w3.org/2000/svg">
<g clip-path="url(#clip0_1478_224)">
<g clip-path="url(#clip1_1478_224)">
<path d="M31.52 30.375L28.295 20.7L25.07 30.375H15.395L23.1522 36.2746L19.9638 46.0893L28.295 40.036L36.6263 46.0893L33.4378 36.2746L41.195 30.375H31.52Z" fill="#1CBCFF"/>
</g>
</g>
<g clip-path="url(#clip2_1478_224)">
<g clip-path="url(#clip3_1478_224)">
<path d="M62.6201 30.375L59.3951 20.7L56.1701 30.375H46.4951L54.2523 36.2746L51.0639 46.0893L59.3951 40.036L67.7264 46.0893L64.5379 36.2746L72.2951 30.375H62.6201Z" fill="#1CBCFF"/>
</g>
</g>
<g clip-path="url(#clip4_1478_224)">
<g clip-path="url(#clip5_1478_224)">
<path d="M93.72 30.375L90.495 20.7L87.27 30.375H77.595L85.3522 36.2746L82.1637 46.0893L90.495 40.036L98.8262 46.0893L95.6378 36.2746L103.395 30.375H93.72Z" fill="#1CBCFF"/>
</g>
</g>
<g clip-path="url(#clip6_1478_224)">
<g clip-path="url(#clip7_1478_224)">
<path d="M124.82 30.375L121.595 20.7L118.37 30.375H108.695L116.452 36.2746L113.264 46.0893L121.595 40.036L129.926 46.0893L126.738 36.2746L134.495 30.375H124.82Z" fill="#1CBCFF"/>
</g>
</g>
<g clip-path="url(#clip8_1478_224)">
<g clip-path="url(#clip9_1478_224)">
<path d="M155.92 30.375L152.695 20.7L149.47 30.375H139.795L147.552 36.2746L144.364 46.0893L152.695 40.036L161.026 46.0893L157.838 36.2746L165.595 30.375H155.92Z" fill="#1CBCFF"/>
</g>
</g>
<defs>
<clipPath id="clip0_1478_224">
<rect width="25.8" height="25.8" fill="white" transform="translate(15.395 20.7)"/>
</clipPath>
<clipPath id="clip1_1478_224">
<rect width="25.8" height="25.8" fill="white" transform="translate(15.395 20.7)"/>
</clipPath>
<clipPath id="clip2_1478_224">
<rect width="25.8" height="25.8" fill="white" transform="translate(46.4951 20.7)"/>
</clipPath>
<clipPath id="clip3_1478_224">
<rect width="25.8" height="25.8" fill="white" transform="translate(46.4951 20.7)"/>
</clipPath>
<clipPath id="clip4_1478_224">
<rect width="25.8" height="25.8" fill="white" transform="translate(77.595 20.7)"/>
</clipPath>
<clipPath id="clip5_1478_224">
<rect width="25.8" height="25.8" fill="white" transform="translate(77.595 20.7)"/>
</clipPath>
<clipPath id="clip6_1478_224">
<rect width="25.8" height="25.8" fill="white" transform="translate(108.695 20.7)"/>
</clipPath>
<clipPath id="clip7_1478_224">
<rect width="25.8" height="25.8" fill="white" transform="translate(108.695 20.7)"/>
</clipPath>
<clipPath id="clip8_1478_224">
<rect width="25.8" height="25.8" fill="white" transform="translate(139.795 20.7)"/>
</clipPath>
<clipPath id="clip9_1478_224">
<rect width="25.8" height="25.8" fill="white" transform="translate(139.795 20.7)"/>
</clipPath>
</defs>
</svg>
